<mxfile host="app.diagrams.net" agent="Mozilla/5.0 (Windows NT 10.0; Win64; x64) AppleWebKit/537.36 (KHTML, like Gecko) Chrome/130.0.0.0 Safari/537.36 Edg/130.0.0.0" version="24.8.4">
  <diagram name="第 1 页" id="O-Ej1mK074zMG87mYnN1">
    <mxGraphModel dx="825" dy="585" grid="1" gridSize="10" guides="1" tooltips="1" connect="1" arrows="1" fold="1" page="1" pageScale="1" pageWidth="827" pageHeight="1169" math="0" shadow="0">
      <root>
        <mxCell id="0" />
        <mxCell id="1" parent="0" />
        <mxCell id="HauFt41b2usWzk_loWmI-1" value="&lt;font style=&quot;font-size: 27px;&quot;&gt;F&lt;/font&gt;" style="ellipse;whiteSpace=wrap;html=1;aspect=fixed;" parent="1" vertex="1">
          <mxGeometry x="570" y="200" width="80" height="80" as="geometry" />
        </mxCell>
        <mxCell id="HauFt41b2usWzk_loWmI-38" style="edgeStyle=orthogonalEdgeStyle;rounded=0;orthogonalLoop=1;jettySize=auto;html=1;exitX=1;exitY=0.5;exitDx=0;exitDy=0;" parent="1" source="HauFt41b2usWzk_loWmI-2" edge="1">
          <mxGeometry relative="1" as="geometry">
            <mxPoint x="840" y="350.2352941176471" as="targetPoint" />
          </mxGeometry>
        </mxCell>
        <mxCell id="HauFt41b2usWzk_loWmI-2" value="&lt;font style=&quot;font-size: 27px;&quot;&gt;G&lt;/font&gt;" style="ellipse;whiteSpace=wrap;html=1;aspect=fixed;" parent="1" vertex="1">
          <mxGeometry x="680" y="310" width="80" height="80" as="geometry" />
        </mxCell>
        <mxCell id="HauFt41b2usWzk_loWmI-3" value="&lt;font style=&quot;font-size: 27px;&quot;&gt;E&lt;/font&gt;" style="ellipse;whiteSpace=wrap;html=1;aspect=fixed;" parent="1" vertex="1">
          <mxGeometry x="440" y="310" width="80" height="80" as="geometry" />
        </mxCell>
        <mxCell id="HauFt41b2usWzk_loWmI-14" style="edgeStyle=orthogonalEdgeStyle;rounded=0;orthogonalLoop=1;jettySize=auto;html=1;exitX=0;exitY=0.5;exitDx=0;exitDy=0;entryX=0;entryY=0.5;entryDx=0;entryDy=0;" parent="1" target="HauFt41b2usWzk_loWmI-4" edge="1">
          <mxGeometry relative="1" as="geometry">
            <mxPoint x="10" y="489.6470588235295" as="sourcePoint" />
          </mxGeometry>
        </mxCell>
        <mxCell id="HauFt41b2usWzk_loWmI-39" style="edgeStyle=orthogonalEdgeStyle;rounded=0;orthogonalLoop=1;jettySize=auto;html=1;exitX=0.5;exitY=1;exitDx=0;exitDy=0;" parent="1" source="HauFt41b2usWzk_loWmI-4" edge="1">
          <mxGeometry relative="1" as="geometry">
            <mxPoint x="110.17647058823536" y="600" as="targetPoint" />
          </mxGeometry>
        </mxCell>
        <mxCell id="HauFt41b2usWzk_loWmI-4" value="&lt;font style=&quot;font-size: 27px;&quot;&gt;C&lt;/font&gt;" style="ellipse;whiteSpace=wrap;html=1;aspect=fixed;" parent="1" vertex="1">
          <mxGeometry x="70" y="450" width="80" height="80" as="geometry" />
        </mxCell>
        <mxCell id="HauFt41b2usWzk_loWmI-5" value="&lt;font style=&quot;font-size: 27px;&quot;&gt;D&lt;/font&gt;" style="ellipse;whiteSpace=wrap;html=1;aspect=fixed;" parent="1" vertex="1">
          <mxGeometry x="280" y="390" width="80" height="80" as="geometry" />
        </mxCell>
        <mxCell id="HauFt41b2usWzk_loWmI-13" style="edgeStyle=orthogonalEdgeStyle;rounded=0;orthogonalLoop=1;jettySize=auto;html=1;exitX=0;exitY=0.5;exitDx=0;exitDy=0;entryX=0;entryY=0.5;entryDx=0;entryDy=0;" parent="1" target="HauFt41b2usWzk_loWmI-6" edge="1">
          <mxGeometry relative="1" as="geometry">
            <mxPoint x="10" y="349.6470588235295" as="sourcePoint" />
          </mxGeometry>
        </mxCell>
        <mxCell id="HauFt41b2usWzk_loWmI-16" style="edgeStyle=orthogonalEdgeStyle;rounded=0;orthogonalLoop=1;jettySize=auto;html=1;exitX=0.5;exitY=1;exitDx=0;exitDy=0;" parent="1" source="HauFt41b2usWzk_loWmI-6" target="HauFt41b2usWzk_loWmI-4" edge="1">
          <mxGeometry relative="1" as="geometry" />
        </mxCell>
        <mxCell id="HauFt41b2usWzk_loWmI-6" value="&lt;font style=&quot;font-size: 27px;&quot;&gt;B&lt;/font&gt;" style="ellipse;whiteSpace=wrap;html=1;aspect=fixed;" parent="1" vertex="1">
          <mxGeometry x="70" y="310" width="80" height="80" as="geometry" />
        </mxCell>
        <mxCell id="HauFt41b2usWzk_loWmI-12" style="edgeStyle=orthogonalEdgeStyle;rounded=0;orthogonalLoop=1;jettySize=auto;html=1;exitX=0;exitY=0.5;exitDx=0;exitDy=0;entryX=0;entryY=0.5;entryDx=0;entryDy=0;" parent="1" target="HauFt41b2usWzk_loWmI-7" edge="1">
          <mxGeometry relative="1" as="geometry">
            <mxPoint x="10" y="200.23529411764707" as="sourcePoint" />
          </mxGeometry>
        </mxCell>
        <mxCell id="HauFt41b2usWzk_loWmI-15" style="edgeStyle=orthogonalEdgeStyle;rounded=0;orthogonalLoop=1;jettySize=auto;html=1;exitX=0.5;exitY=1;exitDx=0;exitDy=0;entryX=0.5;entryY=0;entryDx=0;entryDy=0;" parent="1" source="HauFt41b2usWzk_loWmI-7" target="HauFt41b2usWzk_loWmI-6" edge="1">
          <mxGeometry relative="1" as="geometry" />
        </mxCell>
        <mxCell id="HauFt41b2usWzk_loWmI-7" value="&lt;font style=&quot;font-size: 27px;&quot;&gt;A&lt;/font&gt;" style="ellipse;whiteSpace=wrap;html=1;aspect=fixed;" parent="1" vertex="1">
          <mxGeometry x="70" y="160" width="80" height="80" as="geometry" />
        </mxCell>
        <mxCell id="HauFt41b2usWzk_loWmI-29" value="" style="curved=1;endArrow=classic;html=1;rounded=0;entryX=1;entryY=0;entryDx=0;entryDy=0;exitX=0.973;exitY=0.685;exitDx=0;exitDy=0;exitPerimeter=0;" parent="1" source="HauFt41b2usWzk_loWmI-7" target="HauFt41b2usWzk_loWmI-4" edge="1">
          <mxGeometry width="50" height="50" relative="1" as="geometry">
            <mxPoint x="154.07999999999998" y="247.44" as="sourcePoint" />
            <mxPoint x="150.00000000000006" y="309.99999999999994" as="targetPoint" />
            <Array as="points">
              <mxPoint x="200" y="290" />
              <mxPoint x="170" y="410" />
            </Array>
          </mxGeometry>
        </mxCell>
        <mxCell id="HauFt41b2usWzk_loWmI-32" value="" style="curved=1;endArrow=classic;html=1;rounded=0;entryX=0;entryY=1;entryDx=0;entryDy=0;" parent="1" source="HauFt41b2usWzk_loWmI-4" target="HauFt41b2usWzk_loWmI-5" edge="1">
          <mxGeometry width="50" height="50" relative="1" as="geometry">
            <mxPoint x="153" y="510" as="sourcePoint" />
            <mxPoint x="380" y="560" as="targetPoint" />
            <Array as="points">
              <mxPoint x="130" y="560" />
              <mxPoint x="270" y="510" />
            </Array>
          </mxGeometry>
        </mxCell>
        <mxCell id="HauFt41b2usWzk_loWmI-34" value="" style="curved=1;endArrow=classic;html=1;rounded=0;entryX=0;entryY=0.5;entryDx=0;entryDy=0;exitX=0.5;exitY=0;exitDx=0;exitDy=0;" parent="1" source="HauFt41b2usWzk_loWmI-5" target="HauFt41b2usWzk_loWmI-3" edge="1">
          <mxGeometry width="50" height="50" relative="1" as="geometry">
            <mxPoint x="300.00000000000045" y="360" as="sourcePoint" />
            <mxPoint x="491.00000000000045" y="290" as="targetPoint" />
            <Array as="points">
              <mxPoint x="350" y="340" />
            </Array>
          </mxGeometry>
        </mxCell>
        <mxCell id="HauFt41b2usWzk_loWmI-35" value="" style="curved=1;endArrow=classic;html=1;rounded=0;entryX=0.055;entryY=0.774;entryDx=0;entryDy=0;exitX=0.949;exitY=0.726;exitDx=0;exitDy=0;entryPerimeter=0;exitPerimeter=0;" parent="1" source="HauFt41b2usWzk_loWmI-3" target="HauFt41b2usWzk_loWmI-2" edge="1">
          <mxGeometry width="50" height="50" relative="1" as="geometry">
            <mxPoint x="530" y="390" as="sourcePoint" />
            <mxPoint x="663" y="480" as="targetPoint" />
            <Array as="points">
              <mxPoint x="600" y="420" />
            </Array>
          </mxGeometry>
        </mxCell>
        <mxCell id="HauFt41b2usWzk_loWmI-36" value="" style="curved=1;endArrow=classic;html=1;rounded=0;entryX=0;entryY=0.5;entryDx=0;entryDy=0;exitX=0.5;exitY=0;exitDx=0;exitDy=0;" parent="1" source="HauFt41b2usWzk_loWmI-3" target="HauFt41b2usWzk_loWmI-1" edge="1">
          <mxGeometry width="50" height="50" relative="1" as="geometry">
            <mxPoint x="384" y="240" as="sourcePoint" />
            <mxPoint x="552" y="244" as="targetPoint" />
            <Array as="points">
              <mxPoint x="500" y="250" />
            </Array>
          </mxGeometry>
        </mxCell>
        <mxCell id="HauFt41b2usWzk_loWmI-37" value="" style="curved=1;endArrow=classic;html=1;rounded=0;entryX=0.361;entryY=0.044;entryDx=0;entryDy=0;exitX=1;exitY=0.5;exitDx=0;exitDy=0;entryPerimeter=0;" parent="1" source="HauFt41b2usWzk_loWmI-1" target="HauFt41b2usWzk_loWmI-2" edge="1">
          <mxGeometry width="50" height="50" relative="1" as="geometry">
            <mxPoint x="550" y="160" as="sourcePoint" />
            <mxPoint x="718" y="164" as="targetPoint" />
            <Array as="points">
              <mxPoint x="710" y="270" />
            </Array>
          </mxGeometry>
        </mxCell>
      </root>
    </mxGraphModel>
  </diagram>
</mxfile>
